<svg id="Layer_1" data-name="Layer 1" xmlns="http://www.w3.org/2000/svg" viewBox="0 0 600 250"><defs><style>.cls-1{fill:#24366f;}.cls-2{fill:#dd9035;}.cls-3{fill:#9ec64d;}</style></defs><path class="cls-1" d="M28.07,112.38,25.82,124q9.65-13.22,24.26-13a21.34,21.34,0,0,1,12.52,3.77,15.45,15.45,0,0,1,6.18,10.11,36.2,36.2,0,0,1,11.4-10.35,27.41,27.41,0,0,1,14.17-3.53q10.19.19,15.11,6.71t4.06,18l-.13,1.52-7.87,46.6H97.66l7.8-46.68a38.26,38.26,0,0,0,.06-7.4q-1.32-11.69-13.35-11.88a22.66,22.66,0,0,0-14.83,5.25,22.89,22.89,0,0,0-8.5,13.44l-8.19,47.27H52.78l7.93-47.27q1.92-18.23-13.41-18.69a22.49,22.49,0,0,0-14.14,4.75,23.6,23.6,0,0,0-8.79,12.15l-8.46,49.06H8l12.43-71.51Z"/><path class="cls-1" d="M146.8,151.17l-5.68,32.72H118.51l16.66-96.23,34.56.07q16.07,0,25.28,8.91t8.1,23.11a31.42,31.42,0,0,1-6.21,16.83,34.47,34.47,0,0,1-14.31,10.9,50.65,50.65,0,0,1-19.93,3.76Zm3.11-17.84,13.61.13q8.59-.19,13.15-5.59t3.64-13.29a10.2,10.2,0,0,0-3.08-6.39,10.51,10.51,0,0,0-6.7-2.62l-15.8-.06Z"/><path class="cls-1" d="M245.31,165.84H214.58l-8.53,18H181.14l51-96.23h21.28l17.78,96.23H247.62ZM223,148h20l-4.23-33.17Z"/><path class="cls-1" d="M353.86,105.57h-28l-13.55,78.32H289.63l13.61-78.32H275.68l3.17-17.91H357Z"/><polygon class="cls-1" points="418.54 87.66 411.93 125.86 378.88 125.86 385.56 87.66 362.89 87.66 346.23 183.89 368.83 183.89 375.84 143.71 408.82 143.71 401.88 183.89 424.35 183.89 441.07 87.66 418.54 87.66"/><path class="cls-2" d="M547.7,110.64a13,13,0,0,0-10.9-12.8,71.13,71.13,0,0,0-64.47-41.23,6.3,6.3,0,1,0,0,12.59,58.54,58.54,0,0,1,52.6,33,12.94,12.94,0,0,0,5.66,20.77c.12,1.57.2,3.15.2,4.74a58.53,58.53,0,0,1-58.46,58.47,57.86,57.86,0,0,1-25-5.59A6.3,6.3,0,0,0,442,191.93a71.1,71.1,0,0,0,101.42-64.27c0-2.38-.13-4.74-.36-7.07A13,13,0,0,0,547.7,110.64Z"/><path class="cls-3" d="M567.67,127.66a94.84,94.84,0,0,0-60.38-88.72,6.29,6.29,0,1,0-4.62,11.71,82.69,82.69,0,0,1,37,125,12.56,12.56,0,0,0-2.61-.27,13,13,0,0,0-12.5,16.41,82.38,82.38,0,0,1-52.26,18.64c-2.33,0-4.68-.1-7-.29a6.3,6.3,0,1,0-1.05,12.55c2.65.22,5.35.33,8,.33a94.85,94.85,0,0,0,61.11-22.22,12.94,12.94,0,0,0,15.83-16.88A94.85,94.85,0,0,0,567.67,127.66Z"/><path class="cls-1" d="M502.94,12a13,13,0,0,0-23.08-3.73c-2.49-.15-5-.24-7.53-.24A119,119,0,0,0,370.51,64.83a6.3,6.3,0,1,0,10.71,6.62,106.48,106.48,0,0,1,91.11-50.82c2.1,0,4.19.07,6.26.19a12.95,12.95,0,0,0,21.58,3.49A107.05,107.05,0,1,1,440.5,229.89a6.29,6.29,0,0,0-3.74,12A119.65,119.65,0,1,0,502.94,12Z"/></svg>